<svg width="97" height="76" viewBox="0 0 97 76" fill="none" xmlns="http://www.w3.org/2000/svg">
<path d="M91.6316 71.561C91.6316 73.5933 89.9831 75.2438 87.9498 75.2438H4.49595C2.46176 75.2438 0.813232 73.5943 0.813232 71.561L0.813232 16.5783C0.813232 14.546 2.46081 12.8975 4.49595 12.8975H87.9498C89.9821 12.8975 91.6316 14.546 91.6316 16.5783V71.561Z" fill="#C8FF32"/>
<path d="M91.6316 16.5783C91.6316 14.546 89.9831 12.8975 87.9498 12.8975H4.49595C2.46176 12.8975 0.813232 14.546 0.813232 16.5783L45.6534 47.63L91.6316 16.5783Z" fill="#B7EB2A"/>
<path d="M90.1519 74.509L49.5513 41.1197L50.955 39.4126L91.4469 72.7112C91.1681 73.7708 90.1519 74.509 90.1519 74.509Z" fill="#B7EB2A"/>
<path d="M1.94706 74.2161C1.94706 74.2161 0.869472 73.1159 0.87798 72.2368L40.7877 39.4137L42.1885 41.1208L1.94706 74.2161Z" fill="#B7EB2A"/>
<path d="M96.1177 18.1504C96.1177 27.7618 88.3269 35.5545 78.7155 35.5545C69.1013 35.5545 61.3096 27.7618 61.3096 18.1504C61.3096 8.53809 69.1013 0.746338 78.7155 0.746338C88.3269 0.746338 96.1177 8.53904 96.1177 18.1504Z" fill="white"/>
<path d="M90.6126 15.0295C90.6461 11.8617 88.0455 9.29371 84.8768 9.29371C82.1037 9.29371 79.7882 11.2642 79.257 13.8812C78.7454 11.2454 76.4291 9.25366 73.6454 9.25366C70.4865 9.25366 67.9268 11.8134 67.9268 14.9723C67.9268 20.5014 72.162 23.6847 78.8067 30.1259C78.8067 30.1259 90.548 21.6742 90.6126 15.0295Z" fill="#E83838"/>
<path opacity="0.1" d="M75.4755 9.28446C74.6465 8.54243 73.5538 8.09155 72.3552 8.09155C69.7661 8.09155 67.6658 10.191 67.6658 12.78C67.6658 14.7159 68.301 16.2992 69.4514 17.892C70.0809 14.2433 72.3609 11.1022 75.4755 9.28446Z" fill="white"/>
</svg>
