<svg width="267" height="263" viewBox="0 0 267 263" fill="none" xmlns="http://www.w3.org/2000/svg">
<path d="M204.981 202.429L206.337 200.579C136.809 214.592 82.4563 213.831 78.0231 197.103C76.341 190.691 82.1985 182.73 93.8225 174.094C124.423 177.863 177.685 171.627 237.699 155.798C238.317 155.65 238.904 155.479 239.507 155.32L240.951 153.349C239.746 153.668 238.53 154.003 237.325 154.322C179.092 169.676 126.197 176.042 95.5725 172.81C120.619 154.914 169.765 134.356 227.998 119.002C236.358 116.806 244.598 114.775 252.683 112.955C252.38 112.202 252.04 111.467 251.673 110.736C243.87 113.086 235.843 115.364 227.623 117.525C169.39 132.879 116.481 139.234 85.8711 136.014C110.88 118.136 159.926 97.6206 218.066 82.2676L216.486 81.1102C158.799 96.1933 106.522 102.41 76.1437 99.2212C96.8639 84.4196 134.061 67.7985 179.244 53.8158L177.71 52.6914C131.617 67.0012 94.4366 83.8198 74.0112 98.9763C59.6462 97.1879 50.59 93.1403 48.9229 86.7395C44.9012 71.469 83.6745 47.2401 141.731 26.323L140.212 25.2097C81.3835 46.4859 43.1948 70.9582 47.4654 87.151C49.2368 93.8826 58.1507 98.219 72.3654 100.244C60.9931 109.042 55.3802 117.205 57.1517 123.937C58.9342 130.653 67.8371 135.004 82.0517 137.029C70.6905 145.812 65.0666 153.99 66.8491 160.707C68.6206 167.439 77.5234 171.79 91.7381 173.815C80.3768 182.598 74.764 190.761 76.5355 197.493C81.1875 215.121 134.644 216.474 204.955 202.433L204.981 202.429ZM58.6093 123.525C56.9161 117.128 62.7847 109.152 74.4086 100.516C99.3097 103.576 139.229 100.024 185.616 90.0449C140.357 104.226 103.849 120.821 83.7126 135.773C69.3476 133.984 60.2914 129.937 58.6243 123.536L58.6093 123.525ZM68.3107 160.322C66.6175 153.925 72.4861 145.949 84.1101 137.313C109.011 140.372 148.93 136.82 195.317 126.841C150.058 141.023 113.551 157.617 93.414 172.569C79.049 170.781 69.9929 166.733 68.3257 160.333L68.3107 160.322Z" fill="#C8FF32"/>
</svg>
