<svg width="267" height="263" viewBox="0 0 267 263" fill="none" xmlns="http://www.w3.org/2000/svg">
<path d="M61.8643 202.429L60.5085 200.579C130.036 214.592 184.389 213.831 188.822 197.103C190.504 190.691 184.647 182.73 173.023 174.094C142.422 177.863 89.1606 171.627 29.146 155.798C28.5285 155.65 27.941 155.479 27.3385 155.32L25.8945 153.349C27.0994 153.668 28.3154 154.003 29.5204 154.322C87.7537 169.676 140.648 176.042 171.273 172.81C146.226 154.914 97.0807 134.356 38.8474 119.002C30.4868 116.806 22.2475 114.775 14.1625 112.955C14.4655 112.202 14.8056 111.467 15.1717 110.736C22.9748 113.086 31.0026 115.364 39.2218 117.525C97.4551 132.879 150.364 139.234 180.974 136.014C155.965 118.136 106.919 97.6206 48.7794 82.2676L50.3587 81.1102C108.047 96.1933 160.324 102.41 190.702 99.2212C169.981 84.4196 132.784 67.7985 87.6013 53.8158L89.1355 52.6914C135.228 67.0012 172.409 83.8198 192.834 98.9763C207.199 97.1879 216.255 93.1403 217.922 86.7395C221.944 71.469 183.171 47.2401 125.115 26.323L126.634 25.2097C185.462 46.4859 223.65 70.9582 219.38 87.151C217.608 93.8826 208.695 98.219 194.48 100.244C205.852 109.042 211.465 117.205 209.694 123.937C207.911 130.653 199.008 135.004 184.793 137.029C196.155 145.812 201.779 153.99 199.996 160.707C198.225 167.439 189.322 171.79 175.107 173.815C186.468 182.598 192.081 190.761 190.31 197.493C185.658 215.121 132.201 216.474 61.8904 202.433L61.8643 202.429ZM208.236 123.525C209.929 117.128 204.061 109.152 192.437 100.516C167.535 103.576 127.616 100.024 81.2294 90.0449C126.488 104.226 162.996 120.821 183.133 135.773C197.498 133.984 206.554 129.937 208.221 123.536L208.236 123.525ZM198.535 160.322C200.228 153.925 194.359 145.949 182.735 137.313C157.834 140.372 117.915 136.82 71.528 126.841C116.787 141.023 153.295 157.617 173.431 172.569C187.796 170.781 196.852 166.733 198.519 160.333L198.535 160.322Z" fill="#C8FF32"/>
</svg>
