<svg width="44" height="44" viewBox="0 0 44 44" fill="none" xmlns="http://www.w3.org/2000/svg">
<path d="M44 20.5452H27.1769L41.5334 11.7717L40.0121 9.29036L26.1578 17.7684L34.3108 3.70728L31.7852 2.24505L23.4548 16.6016V0H20.5451V16.8379L11.7717 2.48136L9.27559 4.00267L17.7536 17.857L3.70729 9.70391L2.24504 12.2148L16.5868 20.5452H0V23.4549H16.8379L2.48137 32.243L4.00268 34.7244L17.857 26.2464L9.70393 40.3075L12.2148 41.7697L20.5451 27.4132V44H23.4548V27.1769L32.243 41.5334L34.7244 40.0121L26.2464 26.1578L40.2927 34.3108L41.7549 31.7852L27.4132 23.4549H44V20.5452Z" fill="#C8FF32"/>
</svg>
