<svg width="132" height="130" viewBox="0 0 132 130" fill="none" xmlns="http://www.w3.org/2000/svg">
<path d="M65.9989 18.7973L77.4607 0L81.8022 21.5852L99.0005 7.8405L95.6963 29.6069L116.559 22.5749L106.01 41.8976L128.021 42.4253L111.497 56.9762L132 64.9978L111.497 73.0218L128.021 87.5704L106.01 88.0981L116.559 107.423L95.6963 100.389L99.0005 122.155L81.8022 108.413L77.4607 129.996L65.9989 111.198L54.5393 129.996L50.1978 108.413L32.9994 122.155L36.3037 100.389L15.4409 107.423L25.99 88.0981L3.98139 87.5704L20.5026 73.0218L0 64.9978L20.5026 56.9762L3.98139 42.4253L25.99 41.8976L15.4409 22.5749L36.3037 29.6069L32.9994 7.8405L50.1978 21.5852L54.5393 0L65.9989 18.7973Z" fill="#C8FF32"/>
<path d="M87.3325 42.7851C86.0359 41.4885 83.9341 41.4885 82.6374 42.7851L55.6401 69.7818L49.3625 63.5048C48.066 62.2082 45.9642 62.2082 44.6675 63.5048L39.9724 68.1998C38.6759 69.4964 38.6759 71.5981 39.9724 72.8948L48.5976 81.52L53.2926 86.215C54.5892 87.5115 56.6916 87.5115 57.9876 86.215L62.6826 81.52L92.0274 52.1751C93.324 50.8785 93.324 48.7766 92.0274 47.4801L87.3325 42.7851Z" fill="#050913"/>
</svg>
